<?xml version="1.0" encoding="UTF-8" standalone="no"?>
<!-- Created with Inkscape (http://www.inkscape.org/) -->

<svg
   width="165.56216mm"
   height="165.72002mm"
   viewBox="0 0 165.56216 165.72002"
   version="1.1"
   id="svg5"
   xml:space="preserve"
   inkscape:export-filename="vulkanLogo.svg"
   inkscape:export-xdpi="61.366684"
   inkscape:export-ydpi="61.366684"
   xmlns:inkscape="http://www.inkscape.org/namespaces/inkscape"
   xmlns:sodipodi="http://sodipodi.sourceforge.net/DTD/sodipodi-0.dtd"
   xmlns="http://www.w3.org/2000/svg"
   xmlns:svg="http://www.w3.org/2000/svg"><sodipodi:namedview
     id="namedview7"
     pagecolor="#ffffff"
     bordercolor="#666666"
     borderopacity="1.0"
     inkscape:showpageshadow="2"
     inkscape:pageopacity="0.0"
     inkscape:pagecheckerboard="0"
     inkscape:deskcolor="#d1d1d1"
     inkscape:document-units="mm"
     showgrid="false" /><defs
     id="defs2"><clipPath
       clipPathUnits="userSpaceOnUse"
       id="clipPath2254-7"><rect
         style="fill:#e21d1d;fill-opacity:1;stroke-width:7.01919;stroke-linecap:round;stroke-linejoin:round"
         id="rect2256-8"
         width="1104.8867"
         height="413.77414"
         x="-45.169762"
         y="-58.439957"
         ry="31.62044" /></clipPath></defs><g
     inkscape:label="Layer 1"
     inkscape:groupmode="layer"
     id="layer1"
     transform="translate(-16.473734,-31.669)"><rect
       style="fill:#171717;fill-opacity:0.398329;stroke-width:0.469571;stroke-linecap:round;stroke-linejoin:round"
       id="rect2590"
       width="165.56215"
       height="166.42035"
       x="16.473734"
       y="32.068504"
       ry="2.7956922" /><g
       id="layer1-9"
       transform="matrix(1,0,0,1.0587356,8.7000275,-5.8458051)"><text
         xml:space="preserve"
         style="font-style:normal;font-variant:normal;font-weight:normal;font-stretch:condensed;font-size:16.3619px;line-height:1.25;font-family:Impact;-inkscape-font-specification:'Impact, Condensed';font-variant-ligatures:normal;font-variant-caps:normal;font-variant-numeric:normal;font-variant-east-asian:normal;letter-spacing:0px;word-spacing:0px;fill:#000080;fill-opacity:1;stroke:none;stroke-width:0.255657"
         x="66.35585"
         y="164.61862"
         id="text2366-7"
         transform="scale(1.2101042,0.82637513)"><tspan
           id="tspan2364-1"
           style="font-style:normal;font-variant:normal;font-weight:normal;font-stretch:condensed;font-size:16.3619px;font-family:Impact;-inkscape-font-specification:'Impact, Condensed';font-variant-ligatures:normal;font-variant-caps:normal;font-variant-numeric:normal;font-variant-east-asian:normal;fill:#000080;stroke-width:0.255657"
           x="66.35585"
           y="164.61862">RENDERER</tspan></text><g
         id="g169"
         transform="matrix(0.13210412,0,0,0.13340778,20.867909,84.332258)"
         clip-path="url(#clipPath2254-7)"><g
           transform="translate(-102.34754,-92.005739)"
           id="TM_2_"><path
             d="m 1191.6,366.2 h -7.3 v 19.1 h -6.4 v -19.1 h -7.3 v -5.5 h 21.1 v 5.5 z"
             id="path4" /><path
             d="m 1194.5,360.7 h 9.5 l 4.2,16.4 h 0.1 l 4.2,-16.4 h 9.5 v 24.6 h -6 v -18.7 h -0.1 l -5.2,18.7 h -4.9 l -5.2,-18.7 h -0.1 v 18.7 h -6 z"
             id="path6" /></g><g
           transform="translate(-102.34754,-92.005739)"
           id="g8"><path
             d="m 724.1,385.1 h -40.6 c 0,0 0,-99 0,-129.7 13,7.2 30.1,20.5 40.6,33.3 z"
             id="path10"
             style="fill:#a41e22" /><g
             id="g12"><path
               d="m 381.8,385.1 h -50.6 l -66,-204 h 46 l 45.4,143.5 h 0.6 l 46,-143.5 h 46.3 z"
               id="path14"
               style="fill:#a41e22" /><path
               d="M 585.5,385.1 H 546.9 V 364.5 H 546 c -5.1,8.6 -11.8,14.8 -20,18.6 -8.2,3.8 -16.6,5.7 -25.1,5.7 -10.9,0 -19.8,-1.4 -26.7,-4.3 -7,-2.9 -12.4,-6.9 -16.4,-12.1 -4,-5.2 -6.8,-11.6 -8.4,-19.1 -1.6,-7.5 -2.4,-15.9 -2.4,-25 v -90.9 h 40.6 v 83.4 c 0,12.2 1.9,21.3 5.7,27.3 3.8,6 10.6,9 20.3,9 11,0 19.1,-3.3 24,-9.9 5,-6.6 7.4,-17.4 7.4,-32.4 v -77.4 h 40.6 v 147.7 z"
               id="path16"
               style="fill:#a41e22" /></g><polygon
             points="787,385.1 730.8,296.2 730.7,290.5 781.9,237.3 829.9,237.3 774.2,291.6 836.2,385.1 "
             id="polygon18"
             style="fill:#a41e22" /><path
             d="m 843.6,282.8 c 0.6,-9.5 3,-17.4 7.2,-23.7 4.2,-6.3 9.5,-11.3 16,-15.1 6.5,-3.8 13.8,-6.5 21.9,-8.1 8.1,-1.6 16.2,-2.4 24.4,-2.4 7.4,0 15,0.5 22.6,1.6 7.6,1.1 14.6,3.1 20.9,6.1 6.3,3.1 11.4,7.3 15.4,12.7 4,5.4 6,12.6 6,21.6 v 76.9 c 0,6.7 0.4,13.1 1.1,19.1 0.8,6.1 2.1,10.7 4,13.7 h -41.2 c -0.8,-2.3 -1.4,-4.6 -1.9,-7 -0.5,-2.4 -0.8,-4.8 -1,-7.3 -6.5,6.7 -14.1,11.3 -22.9,14 -8.8,2.7 -17.7,4 -26.9,4 -7,0 -13.6,-0.9 -19.7,-2.6 -6.1,-1.7 -11.4,-4.4 -16,-8 -4.6,-3.6 -8.2,-8.2 -10.7,-13.7 -2.6,-5.5 -3.9,-12.1 -3.9,-19.7 0,-8.4 1.5,-15.3 4.4,-20.7 3,-5.4 6.8,-9.8 11.4,-13 4.7,-3.2 10,-5.7 16,-7.3 6,-1.6 12,-2.9 18.1,-3.9 6.1,-0.9 12.1,-1.7 18,-2.3 5.9,-0.6 11.1,-1.4 15.7,-2.6 4.6,-1.1 8.2,-2.8 10.9,-5 2.7,-2.2 3.9,-5.4 3.7,-9.6 0,-4.4 -0.7,-7.9 -2.2,-10.4 -1.4,-2.6 -3.3,-4.6 -5.7,-6 -2.4,-1.4 -5.1,-2.4 -8.3,-2.9 -3.1,-0.5 -6.5,-0.7 -10.1,-0.7 -8,0 -14.3,1.7 -18.9,5.1 -4.6,3.4 -7.2,9.1 -8,17.1 h -40.3 z m 93.8,30 c -1.7,1.5 -3.9,2.7 -6.4,3.6 -2.6,0.9 -5.3,1.6 -8.3,2.2 -2.9,0.6 -6,1 -9.3,1.4 -3.2,0.4 -6.5,0.9 -9.7,1.4 -3,0.6 -6,1.3 -9,2.3 -3,1 -5.5,2.2 -7.7,3.9 -2.2,1.6 -4,3.7 -5.3,6.1 -1.3,2.5 -2,5.6 -2,9.4 0,3.6 0.7,6.7 2,9.1 1.3,2.5 3.1,4.4 5.4,5.9 2.3,1.4 5,2.4 8,3 3.1,0.6 6.2,0.9 9.4,0.9 8,0 14.2,-1.3 18.6,-4 4.4,-2.7 7.6,-5.9 9.7,-9.6 2.1,-3.7 3.4,-7.5 3.9,-11.3 0.5,-3.8 0.7,-6.9 0.7,-9.1 z"
             id="path20"
             style="fill:#a41e22" /><path
             d="m 1004.2,237.3 h 38.6 v 20.6 h 0.9 c 5.1,-8.6 11.8,-14.8 20,-18.7 8.2,-3.9 16.6,-5.9 25.1,-5.9 10.9,0 19.8,1.5 26.7,4.4 7,3 12.4,7.1 16.4,12.3 4,5.2 6.8,11.6 8.4,19.1 1.6,7.5 2.4,15.9 2.4,25 V 385 h -40.6 v -83.4 c 0,-12.2 -1.9,-21.3 -5.7,-27.3 -3.8,-6 -10.6,-9 -20.3,-9 -11,0 -19,3.3 -24,9.9 -5,6.6 -7.4,17.4 -7.4,32.4 V 385 h -40.6 V 237.3 Z"
             id="path22"
             style="fill:#a41e22" /><g
             id="g24"><path
               d="M 612.4,211.8 V 385 H 653 V 234.2 c -13.1,-8 -26.6,-15.5 -40.6,-22.4 z"
               id="path26"
               style="fill:#a41e22" /></g><path
             d="M 198.4,219.2 C 221.9,150.3 362.6,125 512.5,162.8 602.5,185.4 676,229.3 724,272.7 702.3,215.1 596.7,133.1 451.2,105 286.7,73.2 124.5,101.1 104.4,174.1 89.9,226.8 153.6,288.6 252.1,330.8 207.8,295 186.3,254.8 198.4,219.2 Z"
             id="path28"
             style="fill:#a41e22" /><g
             id="g30"><path
               d="M 724.2,247.6 V 181 h -40.6 v 20.2 c 17.3,15.5 31,31.2 40.6,46.4 z"
               id="path32"
               style="fill:#a41e22" /></g></g></g><text
         xml:space="preserve"
         style="font-style:normal;font-variant:normal;font-weight:normal;font-stretch:condensed;font-size:16.3619px;line-height:1.25;font-family:Impact;-inkscape-font-specification:'Impact, Condensed';font-variant-ligatures:normal;font-variant-caps:normal;font-variant-numeric:normal;font-variant-east-asian:normal;letter-spacing:0px;word-spacing:0px;fill:#000000;fill-opacity:1;stroke:none;stroke-width:0.255657"
         x="66.659218"
         y="164.29727"
         id="text2366"
         transform="scale(1.2101042,0.82637512)"><tspan
           id="tspan2364"
           style="font-style:normal;font-variant:normal;font-weight:normal;font-stretch:condensed;font-size:16.3619px;font-family:Impact;-inkscape-font-specification:'Impact, Condensed';font-variant-ligatures:normal;font-variant-caps:normal;font-variant-numeric:normal;font-variant-east-asian:normal;stroke-width:0.255657"
           x="66.659218"
           y="164.29727">RENDERER</tspan></text></g></g></svg>
